<?xml version="1.0" encoding="UTF-8" standalone="no"?>
<svg
   xmlns:dc="http://purl.org/dc/elements/1.1/"
   xmlns:cc="http://creativecommons.org/ns#"
   xmlns:rdf="http://www.w3.org/1999/02/22-rdf-syntax-ns#"
   xmlns:svg="http://www.w3.org/2000/svg"
   xmlns="http://www.w3.org/2000/svg"
   xmlns:sodipodi="http://sodipodi.sourceforge.net/DTD/sodipodi-0.dtd"
   xmlns:inkscape="http://www.inkscape.org/namespaces/inkscape"
   width="200"
   height="200"
   viewBox="0 0 52.916665 52.916668"
   version="1.1"
   id="svg8"
   inkscape:version="1.0 (6e3e5246a0, 2020-05-07)"
   sodipodi:docname="notebook_flat.svg"
   inkscape:export-filename="/home/renanduarte/renanduarteweb.github.io/assets/img/notebook_flat.png"
   inkscape:export-xdpi="96"
   inkscape:export-ydpi="96">
  <defs
     id="defs2" />
  <sodipodi:namedview
     id="base"
     pagecolor="#ffffff"
     bordercolor="#666666"
     borderopacity="1.0"
     inkscape:pageopacity="0.0"
     inkscape:pageshadow="2"
     inkscape:zoom="2.605"
     inkscape:cx="94.241843"
     inkscape:cy="100"
     inkscape:document-units="px"
     inkscape:current-layer="layer1"
     inkscape:document-rotation="0"
     showgrid="false"
     units="px"
     inkscape:snap-global="false"
     inkscape:window-width="1314"
     inkscape:window-height="704"
     inkscape:window-x="52"
     inkscape:window-y="27"
     inkscape:window-maximized="1" />
  <metadata
     id="metadata5">
    <rdf:RDF>
      <cc:Work
         rdf:about="">
        <dc:format>image/svg+xml</dc:format>
        <dc:type
           rdf:resource="http://purl.org/dc/dcmitype/StillImage" />
        <dc:title />
      </cc:Work>
    </rdf:RDF>
  </metadata>
  <g
     inkscape:label="Camada 1"
     inkscape:groupmode="layer"
     id="layer1">
    <rect
       style="fill:#1a0145;stroke-width:0.264583;fill-opacity:1"
       id="rect10"
       width="53.049957"
       height="52.922928"
       x="-0.067241043"
       y="-0.0098629082" />
    <path
       transform="scale(0.26458333)"
       d="m 73.689453,59.164062 v 78.226558 l 57.590807,63.22776 68.82899,0.45156 0.86644,-59.59972 L 123.875,59.164062 Z m 4.564453,4.457032 H 118.09766 V 84.207031 H 78.253906 Z m 1.517578,26.109375 h 37.205076 v 4.53125 H 79.771484 Z m 0.382813,10.589841 h 37.203123 v 4.5293 H 80.154297 Z m -0.46875,10.15821 h 37.203123 v 4.53125 H 79.685547 Z m 0,10.33007 h 37.203123 v 4.53125 H 79.685547 Z"
       style="fill:#00002b;stroke-width:0.689832"
       id="path71"
       sodipodi:nodetypes="cccccccccccccccccccccccccccccccc" />
    <path
       id="rect50"
       style="fill:#d5e5ff;stroke-width:0.689832"
       d="M 73.689453 59.164062 L 73.689453 137.39062 L 123.875 137.39062 L 123.875 59.164062 L 73.689453 59.164062 z M 78.253906 63.621094 L 118.09766 63.621094 L 118.09766 84.207031 L 78.253906 84.207031 L 78.253906 63.621094 z M 79.771484 89.730469 L 116.97656 89.730469 L 116.97656 94.261719 L 79.771484 94.261719 L 79.771484 89.730469 z M 80.154297 100.32031 L 117.35742 100.32031 L 117.35742 104.84961 L 80.154297 104.84961 L 80.154297 100.32031 z M 79.685547 110.47852 L 116.88867 110.47852 L 116.88867 115.00977 L 79.685547 115.00977 L 79.685547 110.47852 z M 79.685547 120.80859 L 116.88867 120.80859 L 116.88867 125.33984 L 79.685547 125.33984 L 79.685547 120.80859 z "
       transform="scale(0.26458333)" />
  </g>
</svg>
